<?xml version="1.0" standalone="no"?>
<!DOCTYPE svg PUBLIC "-//W3C//DTD SVG 20010904//EN"
 "http://www.w3.org/TR/2001/REC-SVG-20010904/DTD/svg10.dtd">
<svg version="1.0" xmlns="http://www.w3.org/2000/svg"
 width="1000.000000pt" height="1125.000000pt" viewBox="0 0 1000.000000 1125.000000"
 preserveAspectRatio="xMidYMid meet">
<metadata>
Created by potrace 1.16, written by Peter Selinger 2001-2019
</metadata>
<g transform="translate(0.000000,1125.000000) scale(0.100000,-0.100000)"
fill="#000000" stroke="none">
<path d="M4666 10619 c-494 -32 -1033 -152 -1501 -336 -166 -66 -496 -224
-650 -313 -740 -425 -1373 -1045 -1807 -1770 -402 -670 -640 -1420 -699 -2201
-15 -204 -7 -737 15 -919 34 -290 91 -582 162 -828 332 -1157 1068 -2155 2076
-2816 1472 -964 3362 -1082 4936 -306 624 307 1146 711 1603 1240 585 678 983
1526 1133 2415 53 319 61 422 61 840 0 418 -8 521 -61 840 -230 1368 -1028
2585 -2197 3349 -909 595 -1977 875 -3071 805z m164 -489 l0 -160 -65 0 c-36
0 -131 -7 -211 -15 -1007 -106 -1924 -544 -2640 -1261 -663 -666 -1099 -1541
-1223 -2459 -20 -143 -41 -359 -41 -417 l0 -28 -156 0 -157 0 7 123 c52 894
378 1779 921 2502 151 201 237 301 418 484 524 531 1133 912 1831 1147 424
142 791 211 1294 243 22 1 22 1 22 -159z m540 145 c241 -16 578 -74 842 -145
806 -219 1516 -634 2105 -1231 181 -183 267 -283 418 -484 544 -724 869 -1607
921 -2507 l7 -118 -157 0 -156 0 0 28 c0 59 -21 274 -41 417 -194 1423 -1109
2677 -2416 3310 -264 128 -571 239 -861 309 -246 60 -625 116 -794 116 l-68 0
0 161 0 160 53 -5 c28 -3 95 -8 147 -11z m100 -650 c1352 -166 2522 -990 3131
-2205 412 -823 528 -1741 334 -2645 -193 -899 -700 -1713 -1431 -2298 -122
-99 -401 -287 -541 -366 -386 -218 -846 -380 -1290 -455 -263 -44 -354 -51
-673 -51 -319 0 -410 7 -673 51 -1197 202 -2248 947 -2846 2018 -542 971 -655
2120 -314 3181 420 1307 1504 2330 2828 2668 240 61 449 96 725 121 112 10
621 -3 750 -19z m-4820 -4192 c1 -135 49 -508 92 -713 342 -1624 1599 -2923
3213 -3320 261 -64 517 -104 749 -116 l126 -7 0 -159 0 -159 -52 5 c-29 3 -96
8 -148 11 -223 15 -500 60 -760 125 -710 177 -1351 511 -1915 994 -138 118
-388 369 -501 501 -656 770 -1052 1750 -1110 2743 l-7 122 157 0 156 0 0 -27z
m9006 -90 c-59 -1019 -468 -2015 -1143 -2783 -618 -704 -1406 -1197 -2301
-1440 -264 -71 -601 -129 -842 -145 -52 -3 -119 -8 -147 -11 l-53 -5 0 159 0
159 126 7 c805 43 1640 353 2320 863 919 688 1540 1740 1693 2868 20 143 41
358 41 418 l0 27 156 0 157 0 -7 -117z"/>
<path d="M4850 8417 c0 -22 6 -28 41 -37 41 -11 41 -12 35 -48 -3 -20 -6 -116
-6 -214 l0 -176 -40 -7 c-36 -6 -40 -10 -40 -36 l0 -29 140 0 140 0 0 29 c0
26 -4 29 -45 35 l-45 7 0 90 0 89 49 0 49 0 7 -40 c6 -37 9 -40 39 -40 33 0
33 0 40 61 3 34 6 84 6 110 l0 49 -39 0 c-37 0 -39 -1 -45 -41 l-6 -40 -48 7
c-26 3 -48 8 -50 9 -1 1 1 41 4 89 l7 86 92 0 92 0 9 -52 c9 -52 10 -53 45
-56 l36 -3 5 83 c3 46 4 85 3 86 -2 2 -109 6 -239 9 l-236 6 0 -26z"/>
<path d="M4197 8326 c-69 -23 -118 -60 -143 -108 -73 -141 -6 -371 129 -440
95 -48 289 2 350 89 59 86 58 216 -3 340 -66 134 -176 173 -333 119z m128 -60
c71 -30 135 -167 135 -291 0 -54 -4 -68 -26 -94 -30 -36 -88 -56 -138 -47 -75
14 -145 140 -153 276 -5 87 12 125 68 153 42 20 70 21 114 3z"/>
<path d="M6042 8219 c-12 -18 -11 -24 9 -45 l23 -25 -17 -82 c-10 -45 -35
-160 -56 -255 l-38 -173 42 -24 c23 -14 46 -25 51 -25 5 0 62 49 125 110 l116
109 -34 -142 c-18 -78 -36 -150 -39 -159 -3 -12 8 -24 39 -42 24 -14 48 -26
54 -26 5 0 92 79 193 175 179 170 185 175 218 169 24 -5 37 -2 43 7 20 31 16
34 -163 136 -5 2 -13 -7 -20 -22 -10 -21 -8 -28 9 -48 l21 -22 -138 -133 -139
-133 30 113 c50 185 68 251 72 255 2 2 17 -1 32 -7 20 -7 31 -7 41 1 30 24 13
44 -86 101 l-99 56 -15 -22 c-13 -21 -12 -25 12 -49 l26 -26 -137 -138 c-76
-76 -135 -131 -132 -123 2 8 21 76 40 150 20 74 40 152 46 173 8 29 14 37 26
33 47 -18 59 -17 71 8 11 24 8 26 -93 85 -57 34 -107 61 -112 61 -4 0 -14 -9
-21 -21z"/>
<path d="M3568 8067 c-20 -16 -26 -28 -22 -45 6 -20 3 -22 -38 -22 -51 0 -116
-36 -160 -89 -104 -122 -26 -365 143 -450 34 -17 76 -31 94 -31 92 0 204 69
245 151 22 43 26 118 9 168 -13 36 -12 36 -50 14 -20 -12 -27 -23 -23 -33 17
-41 15 -96 -5 -128 -22 -33 -69 -68 -109 -78 -56 -15 -174 81 -221 179 -28 57
-36 134 -19 167 19 35 76 70 115 70 37 0 82 -19 102 -44 14 -16 25 -13 64 18
17 13 15 19 -35 95 -29 44 -55 80 -58 80 -3 0 -17 -10 -32 -22z"/>
<path d="M7021 7566 c-10 -11 -9 -21 4 -46 9 -18 14 -34 12 -36 -2 -3 -76 -65
-163 -139 l-158 -133 -28 20 c-30 21 -55 19 -64 -6 -4 -10 49 -80 147 -196 84
-99 155 -180 158 -180 4 0 37 25 74 56 l67 56 -21 29 c-11 16 -25 29 -30 29
-6 0 -31 -12 -55 -26 -38 -23 -47 -25 -58 -13 -38 43 -116 137 -116 141 0 2
31 30 70 61 l70 58 29 -33 c36 -39 36 -40 11 -63 -25 -22 -25 -34 0 -64 23
-27 19 -29 119 54 33 28 60 55 60 61 1 7 -8 22 -18 35 -19 24 -20 24 -49 7
-17 -10 -33 -18 -36 -18 -3 0 -17 16 -32 36 l-27 35 29 25 c16 13 45 38 65 54
l37 30 60 -71 61 -72 -35 -45 -34 -45 22 -24 c12 -13 26 -23 32 -23 6 0 38 24
70 54 l60 53 -20 24 c-94 119 -279 329 -289 329 -7 0 -18 -6 -24 -14z"/>
<path d="M2861 7463 c-35 -17 -241 -266 -241 -290 0 -7 9 -17 21 -24 17 -9 25
-7 43 10 l23 21 170 -133 170 -134 -14 -27 c-13 -25 -13 -30 3 -47 10 -11 21
-18 25 -17 17 6 203 256 221 297 57 125 -61 255 -189 209 l-42 -15 5 27 c8 35
-18 94 -50 115 -39 26 -104 29 -145 8z m93 -124 c14 -17 26 -41 26 -53 0 -21
-55 -116 -68 -116 -8 0 -131 94 -132 101 0 3 18 27 41 53 52 58 93 63 133 15z
m186 -114 c36 -19 63 -68 55 -98 -9 -29 -68 -117 -79 -117 -8 0 -146 107 -146
114 0 11 72 92 92 102 30 17 43 17 78 -1z"/>
<path d="M4423 6626 l-573 -331 0 -670 0 -670 575 -332 575 -331 575 331 575
332 0 670 0 670 -572 330 c-314 182 -574 331 -577 331 -3 1 -264 -147 -578
-330z m530 3 c-4 -3 -188 -111 -409 -238 l-401 -231 -91 52 c-51 29 -92 55
-91 58 0 3 223 134 497 291 l497 286 3 -105 c1 -58 -1 -109 -5 -113z m635 -94
c248 -143 452 -262 452 -265 0 -3 -40 -29 -90 -59 l-89 -53 -411 237 -410 237
0 109 0 109 48 -27 c27 -16 252 -145 500 -288z m-630 -141 l-3 -146 -240 -139
c-132 -76 -243 -139 -246 -139 -17 0 -248 145 -242 151 12 12 717 418 726 419
4 0 6 -66 5 -146z m469 -70 c197 -114 359 -208 361 -209 1 -1 -44 -30 -100
-65 -56 -34 -112 -68 -123 -76 -19 -13 -42 -2 -270 130 l-250 144 -3 147 c-2
127 0 147 12 142 8 -3 176 -99 373 -213z m-1407 -176 l90 -53 0 -475 0 -475
-38 -21 c-20 -11 -63 -35 -94 -53 l-58 -32 0 580 c0 320 3 581 6 581 3 0 46
-24 94 -52z m2060 -529 l0 -580 -57 32 c-32 18 -75 42 -95 53 l-38 21 0 472 0
471 88 55 c48 30 90 56 95 56 4 1 7 -260 7 -580z m-1122 410 l-3 -131 -94 -54
-94 -55 -113 68 -113 67 77 44 c42 25 133 78 202 118 69 40 129 73 133 74 4 0
6 -59 5 -131z m302 10 l211 -121 -111 -69 -111 -69 -102 59 -102 59 -3 131
c-1 72 0 131 3 131 3 0 100 -55 215 -121z m-927 -77 l77 -47 0 -302 0 -301
-109 -61 c-60 -34 -112 -61 -115 -61 -3 0 -6 194 -6 431 l0 431 38 -22 c20
-12 72 -43 115 -68z m1487 -347 c0 -234 -3 -425 -6 -425 -3 0 -55 27 -115 61
l-109 61 0 296 0 297 108 67 c59 36 110 67 115 67 4 1 7 -190 7 -424z m-1212
185 l111 -65 1 -125 0 -125 -57 -32 c-32 -18 -86 -48 -120 -68 l-63 -35 0 261
c0 143 4 259 8 257 4 -1 58 -32 120 -68z m912 -194 l0 -254 -120 66 -120 67 0
115 0 115 118 72 c64 40 118 72 120 73 1 0 2 -114 2 -254z m-416 173 l107 -61
-3 -125 -3 -125 -102 -60 -103 -60 -102 60 -103 60 -3 125 -3 125 103 60 c57
33 104 61 105 61 0 1 49 -26 107 -60z m-250 -430 l106 -62 0 -135 c0 -106 -3
-132 -12 -125 -7 6 -109 65 -226 133 l-214 123 114 63 c62 35 116 64 120 64 3
0 54 -28 112 -61z m524 -3 l114 -63 -79 -45 c-43 -25 -144 -84 -225 -131
l-148 -86 0 133 0 133 103 61 c56 33 107 60 112 61 6 0 61 -28 123 -63z m-670
-263 l252 -146 0 -113 c0 -63 -3 -114 -6 -114 -6 0 -672 382 -707 405 -16 11
-7 19 80 68 54 31 105 53 113 51 8 -3 129 -71 268 -151z m962 101 c89 -50 99
-58 83 -69 -30 -20 -683 -396 -699 -402 -12 -4 -14 14 -14 110 l0 114 263 152
c144 83 263 151 264 151 2 0 48 -25 103 -56z m-1105 -337 l390 -226 3 -111 3
-112 -33 20 c-32 19 -914 528 -952 549 -17 9 -7 17 75 62 52 28 101 49 109 47
8 -2 191 -105 405 -229z m1384 182 l93 -52 -39 -21 c-122 -70 -903 -522 -930
-538 l-33 -20 0 110 0 110 398 230 c218 127 402 231 408 231 6 1 53 -22 103
-50z"/>
<path d="M7532 6867 c-20 -9 -23 -16 -18 -42 5 -26 2 -33 -16 -42 -13 -6 -101
-43 -197 -83 l-174 -73 -22 27 c-19 24 -25 26 -44 17 -11 -7 -21 -16 -21 -22
0 -5 28 -76 62 -157 43 -101 74 -159 99 -186 33 -36 42 -40 96 -44 98 -7 163
45 163 130 l0 38 33 -20 c19 -12 50 -20 76 -20 37 0 49 6 82 39 59 58 56 101
-22 288 -34 82 -64 151 -68 154 -3 4 -16 2 -29 -4z m71 -295 c1 -39 -26 -69
-69 -78 -26 -5 -37 -1 -63 23 -17 15 -38 45 -46 66 l-16 38 63 28 c96 43 91
43 112 -3 10 -23 19 -56 19 -74z m-214 -104 c1 -32 -22 -67 -54 -83 -41 -19
-49 -19 -84 0 -28 14 -88 121 -76 134 4 3 43 22 88 42 l82 36 22 -56 c12 -31
22 -64 22 -73z"/>
<path d="M2897 6664 l-18 -25 -202 6 c-111 3 -232 8 -269 10 l-66 5 -18 -52
-17 -52 25 -20 c14 -12 105 -90 202 -175 171 -150 176 -155 176 -193 0 -21 4
-38 9 -38 5 0 16 -2 24 -5 10 -5 24 19 50 89 21 53 37 100 37 105 0 5 -10 11
-22 15 -17 4 -28 -1 -44 -19 l-20 -26 -44 39 -44 39 33 81 33 82 60 0 60 0 -7
-31 c-7 -33 4 -49 36 -49 23 0 106 219 88 231 -24 15 -43 9 -62 -17z"/>
<path d="M2420 5771 c-115 -37 -166 -114 -158 -237 7 -118 93 -196 216 -196
234 0 307 311 99 419 -35 18 -122 26 -157 14z"/>
<path d="M7447 5766 c-144 -54 -194 -239 -95 -352 95 -108 271 -101 352 14 53
75 47 203 -11 273 -54 64 -168 94 -246 65z"/>
<path d="M7124 4871 c-17 -10 -40 -34 -51 -52 -24 -39 -133 -292 -133 -308 0
-6 12 -14 26 -17 19 -5 29 -1 40 15 8 11 20 21 27 21 6 0 98 -37 203 -81 l192
-81 -5 -33 c-4 -27 -1 -35 17 -45 12 -7 25 -8 29 -3 10 11 99 224 122 292 25
70 24 99 -4 151 -42 79 -146 106 -219 56 l-36 -24 -11 38 c-17 56 -61 90 -119
90 -28 0 -59 -8 -78 -19z m95 -106 c16 -8 34 -28 41 -45 11 -26 10 -38 -5 -78
-10 -26 -21 -51 -25 -55 -6 -7 -144 44 -157 57 -9 9 39 96 62 114 33 26 46 27
84 7z m267 -99 c19 -19 34 -43 34 -54 0 -27 -41 -132 -51 -132 -8 0 -68 23
-142 54 l-37 16 30 59 c50 99 105 118 166 57z"/>
<path d="M2402 4841 c-10 -6 -5 -28 24 -102 20 -52 40 -97 43 -100 3 -4 17 -3
30 2 20 8 23 14 18 44 l-6 35 60 0 c67 0 58 11 109 -120 l19 -48 -46 -38 -46
-38 -19 27 c-17 23 -22 25 -44 15 -16 -8 -23 -17 -19 -27 15 -41 79 -206 82
-210 1 -2 14 0 29 3 23 6 26 11 22 41 -4 33 2 38 199 210 112 97 203 182 203
188 0 6 -7 30 -16 54 -14 37 -20 42 -43 38 -14 -2 -137 -7 -273 -10 l-247 -6
-17 26 c-17 25 -39 31 -62 16z"/>
<path d="M3187 4363 c-13 -15 -13 -23 -3 -48 l12 -29 -169 -133 -169 -133 -28
20 c-27 19 -29 19 -50 2 l-22 -18 62 -79 c146 -185 164 -205 205 -225 51 -25
88 -25 142 0 60 27 85 70 81 142 -3 50 -1 55 14 47 26 -14 86 -11 118 6 16 9
36 29 45 45 18 34 20 112 4 143 -18 33 -210 277 -218 277 -4 0 -15 -8 -24 -17z
m117 -208 c36 -47 45 -75 34 -108 -11 -30 -53 -57 -89 -57 -23 0 -113 84 -107
100 4 11 118 100 128 100 4 0 19 -16 34 -35z m-177 -169 c42 -61 44 -102 5
-139 -37 -35 -79 -43 -114 -20 -40 28 -90 95 -79 106 40 40 129 106 140 104 8
-1 29 -24 48 -51z"/>
<path d="M6690 4167 c-80 -94 -146 -176 -148 -182 -1 -5 7 -16 18 -23 18 -11
25 -10 51 8 l29 22 98 -83 c53 -46 127 -110 164 -142 l67 -58 -16 -35 c-16
-32 -16 -35 3 -49 10 -8 21 -14 24 -14 3 0 76 84 162 187 l158 187 -53 47
c-78 71 -92 76 -116 47 -27 -32 -26 -37 13 -83 l34 -40 -61 -73 c-33 -41 -64
-76 -67 -78 -4 -2 -39 23 -79 57 l-72 61 34 35 35 34 30 -18 c31 -17 31 -17
51 7 11 13 20 29 20 34 -1 11 -130 122 -152 130 -7 3 -24 -6 -37 -20 l-23 -25
22 -24 c26 -28 23 -52 -12 -84 l-23 -22 -67 56 -67 56 63 73 62 73 48 -25 47
-26 25 23 c14 13 25 27 25 31 0 10 -123 109 -135 109 -5 -1 -75 -78 -155 -173z"/>
<path d="M6375 3859 c-49 -28 -91 -53 -93 -54 -2 -2 3 -13 10 -25 10 -17 20
-20 45 -16 31 4 33 2 42 -32 6 -20 26 -98 46 -172 20 -74 38 -144 41 -155 3
-11 -57 43 -135 120 l-141 139 26 27 c22 23 24 30 15 48 -7 12 -15 21 -18 21
-17 0 -203 -113 -203 -124 1 -28 18 -39 53 -32 23 4 38 2 43 -5 4 -7 28 -90
54 -185 l47 -172 -139 131 c-76 72 -138 134 -138 137 0 4 11 17 25 30 23 21
23 41 -1 68 -2 3 -168 -88 -213 -117 -10 -7 -11 -13 -1 -31 10 -18 17 -21 45
-16 33 7 41 1 207 -150 95 -87 183 -166 195 -177 19 -17 26 -18 50 -8 15 6 38
20 51 29 l23 18 -41 153 c-22 85 -39 155 -38 157 2 1 56 -47 121 -108 113
-106 118 -110 145 -99 15 7 38 20 51 30 l24 18 -63 252 -63 252 22 23 c24 26
26 36 9 59 -12 15 -21 12 -103 -34z"/>
<path d="M3665 3791 c-87 -23 -171 -99 -218 -199 -56 -119 -39 -236 45 -307
50 -43 127 -75 178 -75 49 0 135 35 160 64 12 16 11 20 -10 37 -32 24 -34 24
-78 -6 -21 -15 -51 -25 -71 -25 -45 0 -117 43 -137 82 -56 108 104 348 232
348 36 0 50 -6 84 -38 36 -35 40 -44 40 -86 0 -26 -5 -56 -11 -67 -8 -17 -7
-24 8 -35 49 -38 48 -39 108 47 54 76 56 81 39 94 -29 22 -54 28 -69 15 -10
-9 -15 -6 -20 12 -29 93 -176 166 -280 139z"/>
<path d="M4312 3490 c-118 -28 -212 -176 -212 -334 1 -121 50 -192 167 -236
160 -61 289 -8 361 150 31 66 42 195 22 255 -27 81 -101 136 -219 161 -73 15
-73 15 -119 4z m159 -85 c47 -25 69 -70 69 -141 0 -111 -60 -252 -122 -285
-55 -30 -144 -3 -178 54 -52 84 11 325 97 371 36 20 96 20 134 1z"/>
<path d="M5108 3393 l-228 -3 0 -29 c0 -29 15 -41 49 -41 16 0 19 -16 24 -142
4 -79 7 -178 7 -220 l0 -77 -35 -7 c-30 -5 -35 -10 -35 -35 l0 -29 140 0 140
0 0 30 c0 31 -8 35 -70 42 -24 3 -25 5 -28 96 l-3 92 50 0 49 0 7 -40 c7 -39
8 -40 47 -40 l41 0 -7 46 c-3 26 -6 75 -6 110 l0 64 -34 0 c-34 0 -46 -13 -46
-50 0 -15 -10 -20 -45 -26 -25 -3 -47 -5 -49 -3 -2 2 -6 46 -9 97 l-7 92 49 0
c26 0 69 3 94 6 51 7 48 10 67 -63 10 -42 12 -43 50 -43 37 0 40 2 40 29 0 51
-13 151 -19 149 -3 -2 -108 -4 -233 -5z"/>
</g>
</svg>
